<svg id="Layer_1" data-name="Layer 1" xmlns="http://www.w3.org/2000/svg" viewBox="0 0 696.8 167.2"><defs><style>.cls-1{font-size:170.64px;font-family:FuturaBT-Medium, Futura Md BT;font-weight:500;letter-spacing:-0.02em;}.cls-2{letter-spacing:0em;}</style></defs><text class="cls-1" transform="translate(200.97 144.77)">G<tspan class="cls-2" x="134.06" y="0">YRO</tspan></text><path d="M42.1,58.4c-6.45-6.4-12.76-12.58-19-18.85C18,34.43,17.42,29.11,21.31,25c4.05-4.3,9.82-3.91,15,1.29,6.25,6.25,12.33,12.66,18.6,19.13,4.41-3.27,8-6.15,11.8-8.71,13.67-9.24,28.12-16.25,45.21-15.95,17.9.31,30.41,11.89,31.46,29.83.72,12.37-3.2,23.71-9.06,34.38a9.19,9.19,0,0,1-12.54,3.47c-4.41-2.41-5.62-7.23-4-12.45,2.46-7.84,5.33-15.73,6.29-23.8s-4.19-13-12.47-12.63a49.83,49.83,0,0,0-17.18,3.52c-25,10.73-43.3,28.64-54.22,53.58a51.53,51.53,0,0,0-3.84,18.2c-.31,7.55,4.1,11.39,11.68,12,10.64.79,19.92-3.33,28.78-8.48,5-2.92,9.7-6.49,15.64-10.52-4.44-4.14-8.17-7.4-11.66-10.9C76,92,75.68,86.84,79.75,82.75s9.38-4,14.18.76q23.31,23,46.42,46.12c4.4,4.41,4.7,9.93,1.08,13.81-3.9,4.18-9.44,4.07-14.21-.44-3.76-3.56-7.41-7.23-11-10.95s-6.8-7.27-10.39-11.13c-3.45,2.63-6.16,4.78-9,6.8-11.33,8.2-23.45,14.63-37.41,17.22-28.37,5.27-46.89-13.34-41.19-41.58,2.92-14.45,9.87-27,18.77-38.51C38.59,62.82,40.2,60.81,42.1,58.4Z"/></svg>
