<svg id="Layer_1" data-name="Layer 1" xmlns="http://www.w3.org/2000/svg" viewBox="0 0 167.04 167.2"><path d="M45.05,58.4c-6.46-6.4-12.76-12.58-19-18.85C21,34.43,20.37,29.11,24.25,25c4.06-4.3,9.82-3.91,15,1.29,6.24,6.25,12.33,12.66,18.6,19.13,4.41-3.27,8-6.15,11.79-8.71,13.68-9.24,28.13-16.25,45.21-15.95,17.91.31,30.42,11.89,31.46,29.83.73,12.37-3.19,23.71-9.06,34.38a9.18,9.18,0,0,1-12.54,3.47c-4.4-2.41-5.61-7.23-4-12.45,2.46-7.84,5.34-15.73,6.29-23.8s-4.19-13-12.47-12.63a49.88,49.88,0,0,0-17.18,3.52c-25,10.73-43.29,28.64-54.21,53.58a51.33,51.33,0,0,0-3.85,18.2c-.3,7.55,4.11,11.39,11.68,12,10.64.79,19.93-3.33,28.79-8.48,5-2.92,9.7-6.49,15.64-10.52-4.45-4.14-8.17-7.4-11.66-10.9-4.85-4.86-5.15-10-1.08-14.14s9.39-4,14.19.76q23.3,23,46.41,46.12c4.4,4.41,4.7,9.93,1.08,13.81-3.9,4.18-9.43,4.07-14.2-.44-3.76-3.56-7.41-7.23-11-10.95s-6.81-7.27-10.4-11.13c-3.44,2.63-6.15,4.78-9,6.8-11.33,8.2-23.45,14.63-37.41,17.22C34,150.21,15.5,131.6,21.21,103.36c2.92-14.45,9.87-27,18.76-38.51C41.54,62.82,43.15,60.81,45.05,58.4Z"/></svg>